<svg width="56" height="51" viewBox="0 0 56 51" fill="none" xmlns="http://www.w3.org/2000/svg">
<path d="M44.0084 31.8741L50.6199 13.8116H14.8417L12.5084 7.43665H5.83391V9.56165H10.8261L18.5832 30.7564L13.3717 41.4366H45.5006V39.3116H16.9627L20.5922 31.8741H44.0084ZM47.3812 15.9366L42.3261 29.7491H20.6751L15.6199 15.9366H47.3812Z" fill="white"/>
<path d="M23.3334 46.7507C24.6221 46.7507 25.6668 45.7993 25.6668 44.6257C25.6668 43.4521 24.6221 42.5007 23.3334 42.5007C22.0448 42.5007 21.0001 43.4521 21.0001 44.6257C21.0001 45.7993 22.0448 46.7507 23.3334 46.7507Z" fill="white"/>
<path d="M37.3334 46.7507C38.6221 46.7507 39.6667 45.7993 39.6667 44.6257C39.6667 43.4521 38.6221 42.5007 37.3334 42.5007C36.0447 42.5007 35.0001 43.4521 35.0001 44.6257C35.0001 45.7993 36.0447 46.7507 37.3334 46.7507Z" fill="white"/>
</svg>
