<svg width="99" height="99" viewBox="0 0 99 99" fill="none" xmlns="http://www.w3.org/2000/svg">
<path fill-rule="evenodd" clip-rule="evenodd" d="M0 9.28125C0 8.46074 0.325948 7.67383 0.906138 7.09364C1.48633 6.51345 2.27324 6.1875 3.09375 6.1875H12.375C13.0651 6.18769 13.7353 6.41861 14.2791 6.84353C14.8228 7.26845 15.2089 7.86298 15.3759 8.53256L17.8819 18.5625H89.7187C90.1763 18.5628 90.6281 18.6645 91.0415 18.8604C91.455 19.0563 91.8199 19.3415 92.1099 19.6954C92.3999 20.0493 92.6077 20.4632 92.7185 20.9071C92.8293 21.351 92.8403 21.814 92.7506 22.2626L86.5631 53.2001C86.4277 53.8748 86.0713 54.485 85.5503 54.9344C85.0292 55.3838 84.3731 55.6466 83.6859 55.6813L25.542 58.6018L27.3178 68.0625H80.4375C81.258 68.0625 82.0449 68.3884 82.6251 68.9686C83.2053 69.5488 83.5312 70.3357 83.5312 71.1562C83.5312 71.9768 83.2053 72.7637 82.6251 73.3439C82.0449 73.9241 81.258 74.25 80.4375 74.25H24.75C24.0287 74.2493 23.3304 73.9967 22.7756 73.5357C22.2209 73.0747 21.8446 72.4344 21.7119 71.7255L12.4369 22.3183L9.96187 12.375H3.09375C2.27324 12.375 1.48633 12.0491 0.906138 11.4689C0.325948 10.8887 0 10.1018 0 9.28125ZM19.1936 24.75L24.3911 52.4638L80.9696 49.6238L85.9444 24.75H19.1936ZM30.9375 74.25C27.6554 74.25 24.5078 75.5538 22.1871 77.8746C19.8663 80.1953 18.5625 83.3429 18.5625 86.625C18.5625 89.9071 19.8663 93.0547 22.1871 95.3754C24.5078 97.6962 27.6554 99 30.9375 99C34.2196 99 37.3672 97.6962 39.6879 95.3754C42.0087 93.0547 43.3125 89.9071 43.3125 86.625C43.3125 83.3429 42.0087 80.1953 39.6879 77.8746C37.3672 75.5538 34.2196 74.25 30.9375 74.25ZM74.25 74.25C70.9679 74.25 67.8203 75.5538 65.4995 77.8746C63.1788 80.1953 61.875 83.3429 61.875 86.625C61.875 89.9071 63.1788 93.0547 65.4995 95.3754C67.8203 97.6962 70.9679 99 74.25 99C77.5321 99 80.6797 97.6962 83.0004 95.3754C85.3212 93.0547 86.625 89.9071 86.625 86.625C86.625 83.3429 85.3212 80.1953 83.0004 77.8746C80.6797 75.5538 77.5321 74.25 74.25 74.25ZM30.9375 80.4375C29.2965 80.4375 27.7227 81.0894 26.5623 82.2498C25.4019 83.4102 24.75 84.984 24.75 86.625C24.75 88.266 25.4019 89.8398 26.5623 91.0002C27.7227 92.1606 29.2965 92.8125 30.9375 92.8125C32.5785 92.8125 34.1523 92.1606 35.3127 91.0002C36.4731 89.8398 37.125 88.266 37.125 86.625C37.125 84.984 36.4731 83.4102 35.3127 82.2498C34.1523 81.0894 32.5785 80.4375 30.9375 80.4375ZM74.25 80.4375C72.609 80.4375 71.0352 81.0894 69.8748 82.2498C68.7144 83.4102 68.0625 84.984 68.0625 86.625C68.0625 88.266 68.7144 89.8398 69.8748 91.0002C71.0352 92.1606 72.609 92.8125 74.25 92.8125C75.891 92.8125 77.4648 92.1606 78.6252 91.0002C79.7856 89.8398 80.4375 88.266 80.4375 86.625C80.4375 84.984 79.7856 83.4102 78.6252 82.2498C77.4648 81.0894 75.891 80.4375 74.25 80.4375Z" fill="#0FA3B1"/>
</svg>
