<svg width="36" height="36" viewBox="0 0 36 36" fill="none" xmlns="http://www.w3.org/2000/svg">
<rect width="36" height="36" rx="12" fill="#F6F6F6"/>
<path d="M17.9628 14.0751C15.8129 14.0751 14.0787 15.8093 14.0787 17.9592C14.0787 20.1092 15.8129 21.8433 17.9628 21.8433C20.1128 21.8433 21.8469 20.1092 21.8469 17.9592C21.8469 15.8093 20.1128 14.0751 17.9628 14.0751ZM17.9628 20.4844C16.5735 20.4844 15.4377 19.352 15.4377 17.9592C15.4377 16.5665 16.5701 15.4341 17.9628 15.4341C19.3556 15.4341 20.488 16.5665 20.488 17.9592C20.488 19.352 19.3522 20.4844 17.9628 20.4844ZM22.9117 13.9163C22.9117 14.4199 22.5061 14.8222 22.0058 14.8222C21.5021 14.8222 21.0998 14.4166 21.0998 13.9163C21.0998 13.416 21.5055 13.0103 22.0058 13.0103C22.5061 13.0103 22.9117 13.416 22.9117 13.9163ZM25.4842 14.8357C25.4268 13.6222 25.1496 12.5472 24.2605 11.6615C23.3749 10.7759 22.2999 10.4987 21.0863 10.4378C19.8356 10.3668 16.0867 10.3668 14.8359 10.4378C13.6258 10.4953 12.5508 10.7725 11.6617 11.6582C10.7727 12.5438 10.4989 13.6188 10.438 14.8324C10.367 16.0831 10.367 19.832 10.438 21.0827C10.4955 22.2963 10.7727 23.3713 11.6617 24.2569C12.5508 25.1426 13.6224 25.4198 14.8359 25.4806C16.0867 25.5516 19.8356 25.5516 21.0863 25.4806C22.2999 25.4232 23.3749 25.146 24.2605 24.2569C25.1462 23.3713 25.4234 22.2963 25.4842 21.0827C25.5552 19.832 25.5552 16.0865 25.4842 14.8357ZM23.8684 22.4248C23.6047 23.0873 23.0943 23.5978 22.4283 23.8648C21.4311 24.2603 19.0648 24.169 17.9628 24.169C16.8608 24.169 14.4911 24.2569 13.4973 23.8648C12.8347 23.6011 12.3243 23.0907 12.0573 22.4248C11.6617 21.4275 11.753 19.0612 11.753 17.9592C11.753 16.8572 11.6651 14.4876 12.0573 13.4937C12.3209 12.8312 12.8314 12.3207 13.4973 12.0537C14.4945 11.6582 16.8608 11.7494 17.9628 11.7494C19.0648 11.7494 21.4345 11.6615 22.4283 12.0537C23.0909 12.3173 23.6013 12.8278 23.8684 13.4937C24.2639 14.4909 24.1726 16.8572 24.1726 17.9592C24.1726 19.0612 24.2639 21.4309 23.8684 22.4248Z" fill="#666666"/>
</svg>
