<svg width="36" height="36" viewBox="0 0 36 36" fill="none" xmlns="http://www.w3.org/2000/svg">
<rect width="36" height="36" rx="12" fill="#F6F6F6"/>
<path d="M14.5478 15.1259V24.1538H12.1364V15.1259H14.5478ZM11.9863 12.7729C11.9863 12.4225 12.1086 12.1332 12.3534 11.9052C12.5981 11.6771 12.9263 11.5631 13.3379 11.5631C13.744 11.5631 14.0694 11.6771 14.3142 11.9052C14.5645 12.1332 14.6896 12.4225 14.6896 12.7729C14.6896 13.1234 14.5645 13.4126 14.3142 13.6407C14.0694 13.8687 13.744 13.9828 13.3379 13.9828C12.9263 13.9828 12.5981 13.8687 12.3534 13.6407C12.1086 13.4126 11.9863 13.1234 11.9863 12.7729ZM19.2283 17.0533V24.1538H16.8253V15.1259H19.0781L19.2283 17.0533ZM18.8779 19.3228H18.227C18.227 18.6553 18.3133 18.0545 18.4857 17.5205C18.6581 16.981 18.9001 16.5221 19.2116 16.1438C19.5231 15.76 19.893 15.468 20.3213 15.2677C20.7552 15.0619 21.2391 14.959 21.7731 14.959C22.1959 14.959 22.5825 15.0202 22.9329 15.1426C23.2834 15.2649 23.5837 15.4596 23.834 15.7266C24.0899 15.9936 24.2846 16.3468 24.4181 16.7863C24.5572 17.2257 24.6267 17.7625 24.6267 18.3966V24.1538H22.207V18.3883C22.207 17.9878 22.1514 17.6763 22.0401 17.4538C21.9289 17.2313 21.7648 17.0755 21.5479 16.9865C21.3365 16.892 21.075 16.8447 20.7635 16.8447C20.4409 16.8447 20.16 16.9087 19.9208 17.0366C19.6872 17.1645 19.4925 17.3425 19.3368 17.5706C19.1866 17.7931 19.0725 18.0545 18.9947 18.3549C18.9168 18.6553 18.8779 18.9779 18.8779 19.3228Z" fill="#666666"/>
</svg>
