<svg width="99" height="99" viewBox="0 0 99 99" fill="none" xmlns="http://www.w3.org/2000/svg">
<path fill-rule="evenodd" clip-rule="evenodd" d="M91.7921 99C91.7921 99 99 99 99 91.7921C99 84.5842 91.7921 62.9605 55.7526 62.9605C19.7131 62.9605 12.5052 84.5842 12.5052 91.7921C12.5052 99 19.7131 99 19.7131 99H91.7921ZM19.8717 91.7921H91.6335C91.6673 91.7882 91.7009 91.7834 91.7344 91.7777L91.7921 91.7633C91.7849 89.9901 90.6821 84.6563 85.7951 79.7693C81.0956 75.0698 72.2515 70.1684 55.7526 70.1684C39.2465 70.1684 30.4097 75.0698 25.7101 79.7693C20.8232 84.6563 19.7276 89.9901 19.7131 91.7633C19.7659 91.7734 19.8188 91.783 19.8717 91.7921ZM55.7526 48.5447C59.5759 48.5447 63.2426 47.0259 65.9461 44.3224C68.6496 41.619 70.1684 37.9522 70.1684 34.1289C70.1684 30.3056 68.6496 26.6389 65.9461 23.9354C63.2426 21.2319 59.5759 19.7131 55.7526 19.7131C51.9293 19.7131 48.2626 21.2319 45.5591 23.9354C42.8556 26.6389 41.3368 30.3056 41.3368 34.1289C41.3368 37.9522 42.8556 41.619 45.5591 44.3224C48.2626 47.0259 51.9293 48.5447 55.7526 48.5447ZM77.3763 34.1289C77.3763 39.8639 75.0981 45.364 71.0429 49.4192C66.9876 53.4744 61.4876 55.7526 55.7526 55.7526C50.0177 55.7526 44.5176 53.4744 40.4624 49.4192C36.4071 45.364 34.1289 39.8639 34.1289 34.1289C34.1289 28.394 36.4071 22.8939 40.4624 18.8387C44.5176 14.7835 50.0177 12.5052 55.7526 12.5052C61.4876 12.5052 66.9876 14.7835 71.0429 18.8387C75.0981 22.8939 77.3763 28.394 77.3763 34.1289Z" fill="#0FA3B1"/>
</svg>
