<svg width="36" height="36" viewBox="0 0 36 36" fill="none" xmlns="http://www.w3.org/2000/svg">
<rect width="36" height="36" rx="12" fill="#F6F6F6"/>
<path d="M26.6056 14.5802C26.6166 14.7339 26.6166 14.8877 26.6166 15.0414C26.6166 19.7307 23.0475 25.1339 16.5241 25.1339C14.5144 25.1339 12.6475 24.5518 11.077 23.5415C11.3626 23.5744 11.6371 23.5854 11.9336 23.5854C13.5919 23.5854 15.1184 23.0254 16.3374 22.0699C14.778 22.037 13.4711 21.0156 13.0208 19.6099C13.2405 19.6429 13.4601 19.6648 13.6908 19.6648C14.0092 19.6648 14.3277 19.6209 14.6242 19.5441C12.9989 19.2146 11.7798 17.7869 11.7798 16.0627V16.0188C12.2521 16.2824 12.8012 16.4471 13.3832 16.4691C12.4278 15.8321 11.8018 14.7449 11.8018 13.5149C11.8018 12.856 11.9775 12.252 12.285 11.7248C14.0312 13.8773 16.6559 15.283 19.599 15.4368C19.5441 15.1732 19.5112 14.8987 19.5112 14.6241C19.5112 12.6693 21.0926 11.0769 23.0584 11.0769C24.0797 11.0769 25.0022 11.5052 25.6501 12.1971C26.4518 12.0433 27.2205 11.7468 27.9015 11.3405C27.6379 12.1641 27.0778 12.856 26.342 13.2953C27.0558 13.2184 27.7477 13.0207 28.3846 12.7462C27.9015 13.449 27.2975 14.075 26.6056 14.5802Z" fill="#666666"/>
</svg>
